<?xml version="1.0" encoding="utf-8"?>
<!-- Generator: Adobe Illustrator 18.0.0, SVG Export Plug-In . SVG Version: 6.00 Build 0)  -->
<!DOCTYPE svg PUBLIC "-//W3C//DTD SVG 1.1//EN" "http://www.w3.org/Graphics/SVG/1.1/DTD/svg11.dtd">
<svg version="1.1" id="Layer_1" xmlns="http://www.w3.org/2000/svg" xmlns:xlink="http://www.w3.org/1999/xlink" x="0px" y="0px"
	 viewBox="0 0 127.6 33.9" enable-background="new 0 0 127.6 33.9" xml:space="preserve">
<path d="M16.6,33.9c-2.4,0-4.6-0.4-6.6-1.3c-2-0.8-3.8-2-5.3-3.6c-1.5-1.5-2.7-3.3-3.5-5.4c-0.8-2-1.2-4.3-1.2-6.7
	c0-2.4,0.4-4.7,1.2-6.7c0.8-2,2-3.8,3.5-5.4C6.2,3.3,8,2.1,10,1.3C12,0.4,14.2,0,16.6,0c2.1,0,4.1,0.4,6,1.1
	c1.9,0.7,3.6,1.8,4.9,3.2L27,4.9c-1.5-1.5-3.1-2.5-4.8-3.1c-1.8-0.6-3.6-0.9-5.6-0.9c-2.2,0-4.3,0.4-6.2,1.2c-1.9,0.8-3.6,2-5,3.4
	C4,7,2.9,8.7,2.1,10.6c-0.8,1.9-1.2,4-1.2,6.3c0,2.3,0.4,4.4,1.2,6.3c0.8,1.9,1.9,3.6,3.3,5.1c1.4,1.5,3.1,2.6,5,3.4
	c1.9,0.8,4,1.2,6.2,1.2c2,0,3.8-0.3,5.6-0.9c1.8-0.6,3.4-1.7,4.8-3.1l0.6,0.7c-1.4,1.4-3,2.5-4.9,3.2C20.7,33.5,18.7,33.9,16.6,33.9
	z"/>
<path d="M39.2,33.7h-0.9V0.1h0.9V33.7z M63,17.1H39v-0.9h24V17.1z M62.8,0.1h0.9v33.6h-0.9V0.1z"/>
<path d="M78.1,32.8h20.6v0.9H77.2V0.1H98v0.9H78.1V32.8z M77.9,16.2h18.1v0.9H77.9V16.2z"/>
<path d="M105.3,33.7V0.1h0.7l21.3,32.5h-0.6V0.1h1v33.6H127L105.6,1.2h0.6v32.5H105.3z"/>
</svg>
