<?xml version="1.0" encoding="utf-8"?>
<!-- Generator: Adobe Illustrator 18.0.0, SVG Export Plug-In . SVG Version: 6.00 Build 0)  -->
<!DOCTYPE svg PUBLIC "-//W3C//DTD SVG 1.1//EN" "http://www.w3.org/Graphics/SVG/1.1/DTD/svg11.dtd">
<svg version="1.1" id="Layer_1" xmlns="http://www.w3.org/2000/svg" xmlns:xlink="http://www.w3.org/1999/xlink" x="0px" y="0px"
	 viewBox="0 0 153.7 33.9" enable-background="new 0 0 153.7 33.9" xml:space="preserve">
<path d="M12.5,33.7V1.1H0V0.1h25.9v0.9H13.4v32.7H12.5z"/>
<path d="M24.9,33.7L40.5,0.1h1L57,33.7h-1.1L40.7,0.9h0.5L26,33.7H24.9z M30,23.6l0.5-0.9h20.9l0.5,0.9H30z"/>
<path d="M77,33.9c-2.5,0-4.7-0.4-6.8-1.3c-2.1-0.8-3.9-2-5.5-3.6c-1.6-1.5-2.8-3.3-3.6-5.4c-0.9-2-1.3-4.3-1.3-6.7
	c0-2.4,0.4-4.7,1.3-6.7c0.9-2,2.1-3.8,3.6-5.4c1.6-1.5,3.4-2.7,5.5-3.6C72.3,0.4,74.6,0,77,0s4.7,0.4,6.8,1.3c2.1,0.8,3.9,2,5.5,3.6
	c1.6,1.5,2.8,3.3,3.6,5.4c0.9,2,1.3,4.3,1.3,6.7c0,2.4-0.4,4.7-1.3,6.7c-0.9,2-2.1,3.8-3.6,5.4c-1.6,1.5-3.4,2.7-5.5,3.6
	C81.8,33.5,79.5,33.9,77,33.9z M77,33c2.3,0,4.4-0.4,6.4-1.2c2-0.8,3.7-1.9,5.2-3.4c1.5-1.5,2.6-3.2,3.4-5.1
	c0.8-1.9,1.2-4.1,1.2-6.4c0-2.3-0.4-4.4-1.2-6.4c-0.8-1.9-2-3.6-3.4-5.1c-1.5-1.5-3.2-2.6-5.2-3.4c-2-0.8-4.1-1.2-6.4-1.2
	c-2.3,0-4.4,0.4-6.4,1.2c-2,0.8-3.7,1.9-5.2,3.4C64,7,62.8,8.6,62,10.6c-0.8,1.9-1.2,4.1-1.2,6.4c0,2.3,0.4,4.4,1.2,6.4
	c0.8,1.9,2,3.6,3.4,5.1c1.5,1.5,3.2,2.6,5.2,3.4C72.6,32.6,74.7,33,77,33z"/>
<path d="M103.5,33.7V0.1h1v32.7h20v0.9H103.5z"/>
<path d="M132.3,32.8h21.4v0.9h-22.4V0.1H153v0.9h-20.7V32.8z M132,16.2h18.8v0.9H132V16.2z"/>
</svg>
